HIERARCHY
ROOT mixamorig:Hips
{
	OFFSET 0.000000 201.639420 0.000000
	CHANNELS 6 Xposition Yposition Zposition Xrotation Yrotation Zrotation
	JOINT mixamorig:Spine
	{
		OFFSET 0.006200 19.524994 -2.481800
		CHANNELS 3 Xrotation Yrotation Zrotation
		JOINT mixamorig:Spine1
		{
			OFFSET -0.000900 22.835007 -2.825400
			CHANNELS 3 Xrotation Yrotation Zrotation
			JOINT mixamorig:Spine2
			{
				OFFSET -0.020600 26.552490 -3.193300
				CHANNELS 3 Xrotation Yrotation Zrotation
				JOINT mixamorig:Neck
				{
					OFFSET -0.060000 30.701813 1.352200
					CHANNELS 3 Xrotation Yrotation Zrotation
					JOINT mixamorig:Head
					{
						OFFSET -0.087200 22.547607 3.670900
						CHANNELS 3 Xrotation Yrotation Zrotation
						JOINT mixamorig:HeadTop_End
						{
							OFFSET -0.830600 40.355194 7.893500
							CHANNELS 3 Xrotation Yrotation Zrotation
							End Site
							{
								OFFSET 0.000000 30.592346 0.000000
							}
						}
						JOINT mixamorig:RightEye
						{
							OFFSET -6.302100 18.118591 16.197100
							CHANNELS 3 Xrotation Yrotation Zrotation
							End Site
							{
								OFFSET 0.000000 30.592346 0.000000
							}
						}
						JOINT mixamorig:LeftEye
						{
							OFFSET 6.741500 18.382690 16.401899
							CHANNELS 3 Xrotation Yrotation Zrotation
							End Site
							{
								OFFSET 0.000000 30.592346 0.000000
							}
						}
					}
				}
				JOINT mixamorig:LeftShoulder
				{
					OFFSET 11.924900 18.230499 1.425400
					CHANNELS 3 Xrotation Yrotation Zrotation
					JOINT mixamorig:LeftArm
					{
						OFFSET 25.435989 -0.697632 -5.229300
						CHANNELS 3 Xrotation Yrotation Zrotation
						JOINT mixamorig:LeftForeArm
						{
							OFFSET 54.684776 0.000000 0.000000
							CHANNELS 3 Xrotation Yrotation Zrotation
							JOINT mixamorig:LeftHand
							{
								OFFSET 55.098175 0.000000 0.000000
								CHANNELS 3 Xrotation Yrotation Zrotation
								JOINT mixamorig:LeftHandMiddle1
								{
									OFFSET 23.369751 0.000000 0.000000
									CHANNELS 3 Xrotation Yrotation Zrotation
									JOINT mixamorig:LeftHandMiddle2
									{
										OFFSET 6.378677 0.000000 0.000000
										CHANNELS 3 Xrotation Yrotation Zrotation
										JOINT mixamorig:LeftHandMiddle3
										{
											OFFSET 6.148331 0.000000 0.000000
											CHANNELS 3 Xrotation Yrotation Zrotation
											JOINT mixamorig:LeftHandMiddle4
											{
												OFFSET 6.582504 0.000000 0.000000
												CHANNELS 3 Xrotation Yrotation Zrotation
												End Site
												{
													OFFSET -1.168900 6.395691 1.028606
												}
											}
										}
									}
								}
								JOINT mixamorig:LeftHandThumb1
								{
									OFFSET 7.235672 -3.848206 5.434273
									CHANNELS 3 Xrotation Yrotation Zrotation
									JOINT mixamorig:LeftHandThumb2
									{
										OFFSET 6.568451 -3.792297 3.792300
										CHANNELS 3 Xrotation Yrotation Zrotation
										JOINT mixamorig:LeftHandThumb3
										{
											OFFSET 6.063080 -3.500519 3.500518
											CHANNELS 3 Xrotation Yrotation Zrotation
											JOINT mixamorig:LeftHandThumb4
											{
												OFFSET 4.793182 -2.767334 2.767349
												CHANNELS 3 Xrotation Yrotation Zrotation
												End Site
												{
													OFFSET 0.101639 6.054260 1.275483
												}
											}
										}
									}
								}
								JOINT mixamorig:LeftHandIndex1
								{
									OFFSET 23.101074 -0.309540 4.992809
									CHANNELS 3 Xrotation Yrotation Zrotation
									JOINT mixamorig:LeftHandIndex2
									{
										OFFSET 6.226883 0.000000 0.000000
										CHANNELS 3 Xrotation Yrotation Zrotation
										JOINT mixamorig:LeftHandIndex3
										{
											OFFSET 6.094330 0.000000 0.000000
											CHANNELS 3 Xrotation Yrotation Zrotation
											JOINT mixamorig:LeftHandIndex4
											{
												OFFSET 5.482605 0.000000 0.000000
												CHANNELS 3 Xrotation Yrotation Zrotation
												End Site
												{
													OFFSET -1.427902 5.233032 0.797164
												}
											}
										}
									}
								}
								JOINT mixamorig:LeftHandRing1
								{
									OFFSET 22.299240 0.021149 -3.964172
									CHANNELS 3 Xrotation Yrotation Zrotation
									JOINT mixamorig:LeftHandRing2
									{
										OFFSET 6.321869 0.000000 0.000000
										CHANNELS 3 Xrotation Yrotation Zrotation
										JOINT mixamorig:LeftHandRing3
										{
											OFFSET 5.899796 0.000000 0.000000
											CHANNELS 3 Xrotation Yrotation Zrotation
											JOINT mixamorig:LeftHandRing4
											{
												OFFSET 6.517899 0.000000 0.000000
												CHANNELS 3 Xrotation Yrotation Zrotation
												End Site
												{
													OFFSET -1.637299 6.232208 0.980890
												}
											}
										}
									}
								}
								JOINT mixamorig:LeftHandPinky1
								{
									OFFSET 20.463791 -0.302338 -8.562233
									CHANNELS 3 Xrotation Yrotation Zrotation
									JOINT mixamorig:LeftHandPinky2
									{
										OFFSET 6.908646 0.000000 0.000000
										CHANNELS 3 Xrotation Yrotation Zrotation
										JOINT mixamorig:LeftHandPinky3
										{
											OFFSET 4.622849 0.000000 0.000000
											CHANNELS 3 Xrotation Yrotation Zrotation
											JOINT mixamorig:LeftHandPinky4
											{
												OFFSET 5.216080 0.000000 0.000000
												CHANNELS 3 Xrotation Yrotation Zrotation
												End Site
												{
													OFFSET -0.606308 5.116241 0.814926
												}
											}
										}
									}
								}
							}
						}
					}
				}
				JOINT mixamorig:RightShoulder
				{
					OFFSET -12.001300 18.284088 1.348900
					CHANNELS 3 Xrotation Yrotation Zrotation
					JOINT mixamorig:RightArm
					{
						OFFSET -25.308500 -0.751312 -5.164599
						CHANNELS 3 Xrotation Yrotation Zrotation
						JOINT mixamorig:RightForeArm
						{
							OFFSET -54.684429 0.000000 0.000000
							CHANNELS 3 Xrotation Yrotation Zrotation
							JOINT mixamorig:RightHand
							{
								OFFSET -55.150291 0.000000 0.000000
								CHANNELS 3 Xrotation Yrotation Zrotation
								JOINT mixamorig:RightHandMiddle1
								{
									OFFSET -23.317566 0.000000 0.000000
									CHANNELS 3 Xrotation Yrotation Zrotation
									JOINT mixamorig:RightHandMiddle2
									{
										OFFSET -6.378403 0.000000 0.000000
										CHANNELS 3 Xrotation Yrotation Zrotation
										JOINT mixamorig:RightHandMiddle3
										{
											OFFSET -6.148193 0.000000 0.000000
											CHANNELS 3 Xrotation Yrotation Zrotation
											JOINT mixamorig:RightHandMiddle4
											{
												OFFSET -6.583389 0.000000 0.000000
												CHANNELS 3 Xrotation Yrotation Zrotation
												End Site
												{
													OFFSET 1.171692 6.395905 1.029786
												}
											}
										}
									}
								}
								JOINT mixamorig:RightHandThumb1
								{
									OFFSET -7.190521 -3.860474 5.435846
									CHANNELS 3 Xrotation Yrotation Zrotation
									JOINT mixamorig:RightHandThumb2
									{
										OFFSET -6.567429 -3.791718 3.791708
										CHANNELS 3 Xrotation Yrotation Zrotation
										JOINT mixamorig:RightHandThumb3
										{
											OFFSET -6.062469 -3.500153 3.500166
											CHANNELS 3 Xrotation Yrotation Zrotation
											JOINT mixamorig:RightHandThumb4
											{
												OFFSET -4.792618 -2.767029 2.767022
												CHANNELS 3 Xrotation Yrotation Zrotation
												End Site
												{
													OFFSET -0.100327 6.053253 1.276754
												}
											}
										}
									}
								}
								JOINT mixamorig:RightHandIndex1
								{
									OFFSET -23.048981 -0.310791 4.992554
									CHANNELS 3 Xrotation Yrotation Zrotation
									JOINT mixamorig:RightHandIndex2
									{
										OFFSET -6.227539 0.000000 0.000000
										CHANNELS 3 Xrotation Yrotation Zrotation
										JOINT mixamorig:RightHandIndex3
										{
											OFFSET -6.095047 0.000000 0.000000
											CHANNELS 3 Xrotation Yrotation Zrotation
											JOINT mixamorig:RightHandIndex4
											{
												OFFSET -5.484772 0.000000 0.000000
												CHANNELS 3 Xrotation Yrotation Zrotation
												End Site
												{
													OFFSET 1.420593 5.237305 0.797056
												}
											}
										}
									}
								}
								JOINT mixamorig:RightHandRing1
								{
									OFFSET -22.246323 0.020569 -3.963762
									CHANNELS 3 Xrotation Yrotation Zrotation
									JOINT mixamorig:RightHandRing2
									{
										OFFSET -6.322128 0.000000 0.000000
										CHANNELS 3 Xrotation Yrotation Zrotation
										JOINT mixamorig:RightHandRing3
										{
											OFFSET -5.900024 0.000000 0.000000
											CHANNELS 3 Xrotation Yrotation Zrotation
											JOINT mixamorig:RightHandRing4
											{
												OFFSET -6.518356 0.000000 0.000000
												CHANNELS 3 Xrotation Yrotation Zrotation
												End Site
												{
													OFFSET 1.636398 6.232697 0.982186
												}
											}
										}
									}
								}
								JOINT mixamorig:RightHandPinky1
								{
									OFFSET -20.411011 -0.303314 -8.561701
									CHANNELS 3 Xrotation Yrotation Zrotation
									JOINT mixamorig:RightHandPinky2
									{
										OFFSET -6.907349 0.000000 0.000000
										CHANNELS 3 Xrotation Yrotation Zrotation
										JOINT mixamorig:RightHandPinky3
										{
											OFFSET -4.623840 0.000000 0.000000
											CHANNELS 3 Xrotation Yrotation Zrotation
											JOINT mixamorig:RightHandPinky4
											{
												OFFSET -5.218353 0.000000 0.000000
												CHANNELS 3 Xrotation Yrotation Zrotation
												End Site
												{
													OFFSET 0.602097 5.118835 0.816273
												}
											}
										}
									}
								}
							}
						}
					}
				}
			}
		}
	}
	JOINT mixamorig:LeftUpLeg
	{
		OFFSET 18.168400 -13.561905 -0.039000
		CHANNELS 3 Xrotation Yrotation Zrotation
		JOINT mixamorig:LeftLeg
		{
			OFFSET 0.577358 -80.825211 -3.695000
			CHANNELS 3 Xrotation Yrotation Zrotation
			JOINT mixamorig:LeftFoot
			{
				OFFSET -0.577356 -83.370262 -6.520700
				CHANNELS 3 Xrotation Yrotation Zrotation
				JOINT mixamorig:LeftToeBase
				{
					OFFSET 0.750401 -20.798306 25.135401
					CHANNELS 3 Xrotation Yrotation Zrotation
					JOINT mixamorig:LeftToe_End
					{
						OFFSET -0.000500 0.001200 19.917799
						CHANNELS 3 Xrotation Yrotation Zrotation
						End Site
						{
							OFFSET 0.000000 19.917805 0.000000
						}
					}
				}
			}
		}
	}
	JOINT mixamorig:RightUpLeg
	{
		OFFSET -18.162500 -13.585098 -0.041000
		CHANNELS 3 Xrotation Yrotation Zrotation
		JOINT mixamorig:RightLeg
		{
			OFFSET -0.595024 -80.945297 -3.631900
			CHANNELS 3 Xrotation Yrotation Zrotation
			JOINT mixamorig:RightFoot
			{
				OFFSET 0.595024 -83.218193 -6.561200
				CHANNELS 3 Xrotation Yrotation Zrotation
				JOINT mixamorig:RightToeBase
				{
					OFFSET -0.753601 -20.807106 25.115000
					CHANNELS 3 Xrotation Yrotation Zrotation
					JOINT mixamorig:RightToe_End
					{
						OFFSET 0.000299 0.001700 19.918200
						CHANNELS 3 Xrotation Yrotation Zrotation
						End Site
						{
							OFFSET 0.000000 19.918203 0.000000
						}
					}
				}
			}
		}
	}
}
MOTION
Frames: 4
Frame Time: 0.033333
-0.643065 151.059067 -3.191662 -11.075455 -1.213594 -3.965070 14.128642 0.622945 3.900925 5.342175 0.103935 1.669587 5.341806 0.127574 1.668099 0.497919 -0.776921 -0.404293 -15.716450 -2.984702 -3.198918 0.000000 -0.000000 -0.000000 0.000000 -0.000000 -0.000000 0.000000 -0.000000 -0.000000 0.481321 -5.581805 -15.425045 -12.034127 -27.189457 -57.383752 -0.000013 -51.737150 0.000013 32.224570 2.339657 37.956280 -0.095697 -1.004199 -4.401388 0.614861 2.848910 -24.353253 0.057801 0.892134 -7.413859 -0.000000 -0.000001 0.000000 1.252323 -1.347074 5.133541 4.902631 12.386832 -0.065194 -0.293902 2.512366 2.362578 -0.000001 -0.000000 -0.000001 -1.237526 -5.971596 -11.069591 0.584531 2.781004 -23.735848 0.113899 1.249762 -10.414829 -0.000003 0.000002 -0.000002 0.040155 1.845851 -1.200194 0.405209 2.331431 -19.716547 0.300307 2.015081 -16.950923 -0.000000 -0.000000 -0.000000 -0.534224 12.617340 3.214784 0.610347 -1.234980 -24.598429 0.030841 0.652418 -5.414332 0.000000 0.000001 0.000001 0.636059 0.697665 11.650833 -18.181465 37.678554 59.859197 0.000009 42.654330 -0.000022 35.956151 2.647807 -40.880697 0.083297 -1.341417 17.604816 0.329321 -2.118469 17.670123 0.030399 -0.650821 5.348255 -0.000003 0.000001 -0.000002 -1.602266 -0.553307 -0.493687 13.429579 -16.415029 3.088466 -5.759023 -11.880509 -5.230566 -0.000003 -0.000006 -0.000003 -2.994869 2.852614 32.244145 0.165840 -1.512505 12.513117 0.011854 -0.406817 3.340130 0.000002 0.000000 0.000001 1.203829 -5.694263 13.726250 0.207590 -1.689653 14.007545 0.032142 -0.669249 5.500317 -0.000003 0.000000 -0.000002 1.758417 -12.279856 7.865408 0.202894 -1.670731 13.847586 0.079486 -1.050411 8.653262 -0.000002 0.000000 0.000001 -59.794304 -2.192844 10.325049 61.134913 -0.330631 4.664019 9.448384 -0.244029 -6.449252 -1.217750 -0.000009 0.000001 -0.000000 0.000001 0.000000 -58.405030 -2.723254 -7.797045 63.564875 -0.345997 1.669476 4.832909 0.007212 2.724631 -0.040647 0.000000 -0.000001 0.000000 -0.000001 -0.000000 
-0.636321 151.060974 -3.175556 -11.099225 -1.207272 -3.965240 14.109662 0.630744 3.876910 5.337098 0.108049 1.661776 5.336723 0.131739 1.660251 0.541233 -0.773053 -0.365350 -15.515080 -2.919652 -3.219209 -0.000000 -0.000000 -0.000000 -0.000000 -0.000000 -0.000000 -0.000000 -0.000000 -0.000000 0.481890 -5.573773 -15.416341 -12.118665 -27.117552 -57.516839 -0.000029 -51.620681 -0.000041 32.306020 2.172946 38.156702 -0.095695 -1.004178 -4.401391 0.614867 2.848896 -24.353268 0.057801 0.892154 -7.413843 -0.000001 -0.000001 0.000003 1.252327 -1.347079 5.133546 4.902635 12.386884 -0.065189 -0.293904 2.512373 2.362580 0.000000 -0.000000 -0.000000 -1.237516 -5.971576 -11.069589 0.584537 2.781004 -23.735860 0.113902 1.249765 -10.414830 -0.000000 -0.000001 0.000002 0.040159 1.845863 -1.200192 0.405203 2.331409 -19.716541 0.300309 2.015103 -16.950923 -0.000000 -0.000001 0.000002 -0.534214 12.617383 3.214791 0.610357 -1.235005 -24.598411 0.030850 0.652422 -5.414318 0.000000 -0.000000 0.000001 0.635637 0.702990 11.637917 -18.210546 37.657206 59.923367 0.000031 42.532090 -0.000027 35.967093 2.685908 -40.917321 0.083299 -1.341417 17.604816 0.329320 -2.118469 17.670125 0.030401 -0.650819 5.348254 -0.000001 -0.000001 -0.000003 -1.602264 -0.553308 -0.493686 13.429580 -16.415028 3.088467 -5.759025 -11.880513 -5.230568 -0.000001 -0.000001 -0.000001 -2.994870 2.852614 32.244145 0.165838 -1.512502 12.513114 0.011857 -0.406818 3.340124 0.000002 0.000000 0.000000 1.203834 -5.694262 13.726253 0.207593 -1.689653 14.007544 0.032143 -0.669250 5.500321 0.000000 0.000001 0.000000 1.758419 -12.279858 7.865408 0.202893 -1.670730 13.847590 0.079482 -1.050413 8.653262 0.000003 0.000000 -0.000001 -59.776272 -2.172543 10.340614 61.151510 -0.349595 4.652298 9.432620 -0.241787 -6.425767 -1.220833 -0.000001 0.000001 -0.000000 0.000001 0.000000 -58.377600 -2.722129 -7.794490 63.577593 -0.338985 1.659442 4.807058 0.006174 2.719850 -0.021272 0.000002 0.000001 0.000000 0.000000 -0.000000 
-0.619690 151.074020 -3.171268 -11.117665 -1.204286 -3.979013 14.097219 0.643255 3.842218 5.335238 0.114311 1.649861 5.334861 0.138026 1.648285 0.569598 -0.769702 -0.336525 -15.370268 -2.874459 -3.215418 0.000000 -0.000000 -0.000000 0.000000 -0.000000 -0.000000 0.000000 -0.000000 -0.000000 0.482654 -5.564318 -15.401074 -12.161164 -27.124064 -57.576357 0.000009 -51.534365 -0.000036 32.323283 2.059299 38.316098 -0.095700 -1.004165 -4.401382 0.614849 2.848880 -24.353270 0.057801 0.892143 -7.413843 -0.000000 0.000000 0.000000 1.252323 -1.347076 5.133539 4.902628 12.386843 -0.065192 -0.293904 2.512373 2.362583 0.000003 -0.000002 -0.000001 -1.237519 -5.971579 -11.069583 0.584535 2.781028 -23.735860 0.113907 1.249753 -10.414832 -0.000002 -0.000002 -0.000002 0.040156 1.845843 -1.200195 0.405207 2.331437 -19.716545 0.300313 2.015100 -16.950916 -0.000003 -0.000000 -0.000001 -0.534224 12.617379 3.214802 0.610354 -1.234983 -24.598417 0.030852 0.652405 -5.414324 0.000001 -0.000001 0.000002 0.635105 0.709842 11.620682 -18.254196 37.658385 59.987660 -0.000000 42.372274 0.000008 35.920689 2.747145 -40.950891 0.083298 -1.341418 17.604818 0.329321 -2.118469 17.670123 0.030402 -0.650821 5.348253 0.000000 0.000001 -0.000004 -1.602265 -0.553309 -0.493686 13.429578 -16.415029 3.088466 -5.759021 -11.880507 -5.230566 0.000001 -0.000003 -0.000001 -2.994873 2.852611 32.244145 0.165842 -1.512507 12.513115 0.011856 -0.406816 3.340128 0.000002 0.000001 -0.000003 1.203831 -5.694263 13.726250 0.207591 -1.689654 14.007546 0.032142 -0.669252 5.500324 -0.000002 -0.000001 0.000001 1.758417 -12.279859 7.865410 0.202893 -1.670729 13.847586 0.079486 -1.050413 8.653264 0.000000 0.000000 0.000000 -59.757858 -2.158671 10.360357 61.152063 -0.363610 4.645515 9.427331 -0.240239 -6.401710 -1.220057 -0.000002 -0.000002 -0.000000 -0.000000 0.000000 -58.341509 -2.725359 -7.777116 63.562703 -0.333927 1.649267 4.791803 0.005273 2.712968 0.006376 0.000000 0.000001 -0.000000 0.000000 -0.000000 
-0.596831 151.099609 -3.183228 -11.130496 -1.208665 -4.002479 14.092687 0.660405 3.804671 5.337113 0.122444 1.636088 5.336715 0.146076 1.634452 0.588428 -0.765700 -0.314198 -15.266876 -2.835458 -3.200329 -0.000000 -0.000000 0.000000 -0.000000 -0.000000 0.000000 -0.000000 -0.000000 0.000000 0.483611 -5.554037 -15.376730 -12.173707 -27.208562 -57.572819 0.000019 -51.454708 0.000017 32.272719 1.990823 38.442094 -0.095702 -1.004184 -4.401386 0.614865 2.848884 -24.353267 0.057797 0.892148 -7.413854 -0.000001 0.000000 0.000000 1.252323 -1.347097 5.133533 4.902625 12.386870 -0.065182 -0.293901 2.512362 2.362574 0.000001 0.000001 0.000000 -1.237527 -5.971605 -11.069606 0.584537 2.781039 -23.735840 0.113895 1.249763 -10.414839 -0.000001 -0.000001 -0.000001 0.040149 1.845856 -1.200194 0.405205 2.331404 -19.716547 0.300311 2.015092 -16.950918 -0.000001 0.000001 -0.000001 -0.534225 12.617394 3.214806 0.610347 -1.234994 -24.598424 0.030848 0.652408 -5.414319 -0.000004 0.000000 -0.000001 0.634532 0.718467 11.602911 -18.305196 37.693065 60.035034 -0.000003 42.189133 0.000002 35.810494 2.814139 -40.975838 0.083301 -1.341416 17.604816 0.329321 -2.118468 17.670121 0.030400 -0.650820 5.348257 0.000000 0.000001 -0.000001 -1.602264 -0.553307 -0.493687 13.429578 -16.415024 3.088468 -5.759026 -11.880509 -5.230567 0.000001 0.000001 0.000000 -2.994867 2.852613 32.244145 0.165840 -1.512505 12.513117 0.011858 -0.406819 3.340129 -0.000000 0.000002 -0.000002 1.203832 -5.694262 13.726250 0.207591 -1.689654 14.007546 0.032141 -0.669249 5.500318 -0.000001 -0.000000 -0.000002 1.758423 -12.279859 7.865408 0.202891 -1.670728 13.847587 0.079487 -1.050414 8.653265 0.000001 0.000001 -0.000002 -59.734949 -2.151821 10.381365 61.129298 -0.368379 4.645975 9.437406 -0.239979 -6.383472 -1.216257 0.000003 -0.000000 -0.000000 0.000001 0.000000 -58.297399 -2.728877 -7.741201 63.516545 -0.332595 1.637161 4.790564 0.004658 2.701737 0.042838 -0.000002 0.000001 -0.000000 -0.000000 0.000000 
